<?xml version="1.0" standalone="no"?>
<!DOCTYPE svg PUBLIC "-//W3C//DTD SVG 20010904//EN"
 "http://www.w3.org/TR/2001/REC-SVG-20010904/DTD/svg10.dtd">
<svg version="1.0" xmlns="http://www.w3.org/2000/svg"
 width="1280.000000pt" height="982.000000pt" viewBox="0 0 1280.000000 982.000000"
 preserveAspectRatio="xMidYMid meet">
<metadata>
Created by potrace 1.15, written by Peter Selinger 2001-2017
</metadata>
<g transform="translate(0.000000,982.000000) scale(0.100000,-0.100000)"
fill="#000000" stroke="none">
<path d="M273 9699 l-143 -120 0 -245 0 -245 -23 7 c-12 4 -41 13 -64 20 l-43
13 0 -42 c1 -23 23 -937 49 -2032 42 -1721 51 -1996 65 -2035 14 -41 16 -188
16 -1506 0 -803 3 -1854 7 -2334 l6 -873 313 -153 313 -153 64 67 c35 37 111
118 169 181 l105 113 6 727 c4 399 8 1073 8 1496 1 424 5 1025 8 1337 l6 567
80 -35 c516 -227 1033 -379 1496 -440 166 -21 500 -29 655 -15 348 32 661 135
909 298 169 112 285 220 441 410 191 234 377 418 606 595 989 770 2605 1316
4768 1612 758 104 1664 177 2415 195 227 5 285 9 265 18 -64 29 -562 221 -800
308 -1718 631 -3311 1055 -4565 1214 -629 80 -1251 93 -1695 35 -525 -69 -914
-222 -1215 -479 -110 -95 -154 -125 -252 -174 -375 -187 -942 -180 -1688 20
-332 89 -848 274 -1245 447 l-135 58 0 35 c0 19 4 96 8 172 l8 137 -25 0 c-59
0 -56 -20 -49 358 l6 347 -339 103 c-186 57 -346 105 -354 107 -8 2 -78 -49
-157 -116z"/>
</g>
</svg>
